<?xml version="1.0" encoding="UTF-8" standalone="no"?>
<svg
   viewBox="0 0 500 500"
   version="1.1"
   id="svg8"
   sodipodi:docname="codepen-logo.svg"
   inkscape:version="1.1.1 (3bf5ae0d25, 2021-09-20)"
   width="500"
   height="500"
   xmlns:inkscape="http://www.inkscape.org/namespaces/inkscape"
   xmlns:sodipodi="http://sodipodi.sourceforge.net/DTD/sodipodi-0.dtd"
   xmlns="http://www.w3.org/2000/svg"
   xmlns:svg="http://www.w3.org/2000/svg">
  <defs
     id="defs12" />
  <sodipodi:namedview
     id="namedview10"
     pagecolor="#ffffff"
     bordercolor="#111111"
     borderopacity="1"
     inkscape:pageshadow="0"
     inkscape:pageopacity="0"
     inkscape:pagecheckerboard="1"
     showgrid="false"
     inkscape:zoom="0.93359375"
     inkscape:cx="255.46444"
     inkscape:cy="256"
     inkscape:window-width="1366"
     inkscape:window-height="705"
     inkscape:window-x="-8"
     inkscape:window-y="-8"
     inkscape:window-maximized="1"
     inkscape:current-layer="svg8" />
  <path
     d="m 233.68905,303.43149 c -17.04378,-11.52084 -34.19657,-22.88039 -51.23813,-34.40568 -2.25811,-1.52729 -3.81543,-1.63742 -6.12028,-0.0322 l -43.23905,29.09299 c 34.66378,23.10844 103.66872,69.17403 103.66872,69.17403 v -59.8301 c -0.0133,-1.36155 -1.72752,-3.0924 -3.07126,-3.99899 z m -51.33268,-70.37983 c 17.19062,-11.30171 34.31782,-22.70243 51.29041,-34.32783 1.65298,-1.1324 3.08684,-3.90331 3.11353,-5.9334 v -57.51636 c 0,0 -69.00383,45.74523 -103.74213,68.90262 15.23951,10.18822 29.6681,19.92593 44.25799,29.41447 1.13461,0.73639 3.77762,0.31591 5.0802,-0.5395 z m 83.14544,-34.83062 a 5029.6134,5029.6134 0 0 0 52.97898,35.39014 c 1.01893,0.67188 3.24813,0.66965 4.2704,0 l 44.21794,-29.44117 -103.51186,-69.20962 v 59.34509 c 0.0111,1.33597 0.89545,3.13801 2.04454,3.91556 z m -13.04703,23.37651 c -1.34597,-0.89212 -4.01677,-0.58732 -5.27598,0.18688 -5.35831,3.29485 -10.52638,6.90006 -15.75566,10.40626 -9.17484,6.15142 -28.20532,18.93592 -28.20532,18.93592 l 43.20679,28.77152 c 1.94443,1.28702 4.93448,1.3571 6.96345,0.12348 l 43.39812,-28.91392 c 10e-4,0 -37.90856,-25.25197 -44.3314,-29.51014 z m -130.26889,7.50519 v 44.05998 l 32.95072,-22.06726 z"
     id="path2"
     style="fill:#ffffff;stroke-width:1.11238" />
  <path
     d="M 250.10879,0.93723849 C 112.4949,0.93723849 0.93723849,112.4949 0.93723849,250.10879 c 0,137.61388 111.55766151,249.17154 249.17155151,249.17154 137.61388,0 249.17154,-111.55766 249.17154,-249.17154 C 499.28033,112.4949 387.72267,0.93723849 250.10879,0.93723849 Z M 404.72864,295.72275 c 0,6.43508 -2.95002,10.9769 -8.35504,14.56542 a 42292.319,42292.319 0 0 0 -137.14001,91.42371 c -6.51184,4.35828 -12.42966,4.17584 -18.89255,-0.1524 -45.36591,-30.38335 -90.90201,-60.67549 -136.40474,-90.85417 -5.684223,-3.76984 -8.447358,-8.40621 -8.447358,-15.27288 v -88.6884 c 0,-6.83107 2.804292,-11.49303 8.480728,-15.2573 45.50273,-30.17868 91.14673,-60.47194 136.51487,-90.85418 6.47178,-4.3338 12.34066,-4.457274 18.84137,-0.10567 a 45707.41,45707.41 0 0 0 137.1122,91.43149 c 5.20369,3.45503 8.29053,7.72322 8.29053,14.08264 z"
     id="path4"
     style="fill:#ffffff;stroke-width:1.11238" />
  <path
     d="m 317.12593,269.27942 a 4256.3305,4256.3305 0 0 1 -50.48617,33.7405 c -2.68304,1.76645 -3.21253,3.69085 -3.18249,6.88447 v 57.11591 l 103.49406,-68.97157 -42.85639,-28.79044 c -2.60851,-1.78425 -4.37162,-1.74309 -6.96901,0.0211 z m 59.79337,3.82879 v -44.06776 l -32.9151,22.10618 z"
     id="path6"
     style="fill:#ffffff;stroke-width:1.11238" />
</svg>
