<?xml version="1.0" encoding="UTF-8" standalone="no"?>
<svg
   width="500"
   height="500"
   viewBox="0 0 500 500"
   fill="none"
   version="1.1"
   id="svg4"
   sodipodi:docname="github-logo.svg"
   inkscape:version="1.1.1 (3bf5ae0d25, 2021-09-20)"
   xmlns:inkscape="http://www.inkscape.org/namespaces/inkscape"
   xmlns:sodipodi="http://sodipodi.sourceforge.net/DTD/sodipodi-0.dtd"
   xmlns="http://www.w3.org/2000/svg"
   xmlns:svg="http://www.w3.org/2000/svg">
  <defs
     id="defs8" />
  <sodipodi:namedview
     id="namedview6"
     pagecolor="#ffffff"
     bordercolor="#111111"
     borderopacity="1"
     inkscape:pageshadow="0"
     inkscape:pageopacity="0"
     inkscape:pagecheckerboard="1"
     showgrid="false"
     inkscape:zoom="0.93359375"
     inkscape:cx="275.8159"
     inkscape:cy="245.2887"
     inkscape:window-width="1366"
     inkscape:window-height="705"
     inkscape:window-x="-8"
     inkscape:window-y="-8"
     inkscape:window-maximized="1"
     inkscape:current-layer="svg4" />
  <path
     fill-rule="evenodd"
     clip-rule="evenodd"
     d="m 250,6.0613579 c -138.18509,0 -250.108785,111.9236921 -250.108785,250.1087821 0,110.67314 71.59364,204.1513 171.011885,237.29072 12.50544,2.18845 17.19498,-5.31482 17.19498,-11.88017 0,-5.94009 -0.31264,-25.63615 -0.31264,-46.58276 -62.83983,11.56753 -79.0969,-15.31916 -84.09907,-29.38779 -2.81373,-7.19062 -15.006535,-29.38777 -25.636159,-35.32786 -8.753808,-4.68954 -21.259247,-16.25708 -0.312636,-16.5697 19.696066,-0.31264 33.764695,18.13288 38.454235,25.63614 22.50979,37.82895 58.46293,27.19933 72.84418,20.63397 2.18845,-16.25707 8.75381,-27.19932 15.94443,-33.45204 -55.6492,-6.25272 -113.799498,-27.82461 -113.799498,-123.49121 0,-27.19933 9.691718,-49.70913 25.636158,-67.21675 -2.50109,-6.25271 -11.25489,-31.88886 2.50108,-66.27882 0,0 20.94662,-6.56536 68.77992,25.63616 20.00871,-5.62745 41.26795,-8.44118 62.52719,-8.44118 21.25926,0 42.5185,2.81373 62.5272,8.44118 47.83331,-32.51415 68.77993,-25.63616 68.77993,-25.63616 13.75597,34.38996 5.00217,60.02611 2.50108,66.27882 15.94443,17.50762 25.63615,39.70478 25.63615,67.21675 0,95.97924 -58.46294,117.23849 -114.11214,123.49121 9.06644,7.8159 16.88234,22.82242 16.88234,46.27012 0,33.45205 -0.31263,60.33875 -0.31263,68.77992 0,6.56535 4.68954,14.38126 17.19498,11.88017 98.79296,-33.13942 170.3866,-126.93021 170.3866,-237.29072 C 500.10878,117.98505 388.1851,6.0613579 250,6.0613579 Z"
     fill="#1b1f23"
     id="path2"
     style="stroke-width:31.2636;fill:#ffffff" />
</svg>
